# AST/ASF file generated using VICON BodyLanguage
# -----------------------------------------------
:version 1.10
:name VICON
:units
  mass 1.0
  length 0.45
  angle deg
:documentation
   .ast/.asf automatically generated from VICON data using
   VICON BodyBuilder and BodyLanguage model FoxedUp or BRILLIANT.MOD
:root
   order TX TY TZ RX RY RZ
   axis XYZ
   position 0 0 0  
   orientation 0 0 0 
:bonedata
  begin
     id 1 
     name lhipjoint
     direction 0.621036 -0.695554 0.361275 
     length 2.46325 
     axis 0 0 0  XYZ
  end
  begin
     id 2 
     name lfemur
     direction 0.34202 -0.939693 0  
     length 6.54784  
     axis 0 0 20  XYZ
    dof rx ry rz
    limits (-160.0 20.0)
           (-70.0 70.0)
           (-60.0 70.0)
  end
  begin
     id 3 
     name ltibia
     direction 0.34202 -0.939693 0   
     length 7.84737   
     axis 0 0 20   XYZ
    dof rx
    limits (-10.0 170.0)
  end
  begin
     id 4 
     name lfoot
     direction 0.0790693 -0.217241 0.97291   
     length 2.59747   
     axis -90 7.62852e-016 20   XYZ
    dof rx rz
    limits (-45.0 90.0)
           (-70.0 20.0)
  end
  begin
     id 5 
     name ltoes
     direction 1.53572e-011 -4.21898e-011 1   
     length 1.29919   
     axis -90 7.62852e-016 20   XYZ
    dof rx
    limits (-90.0 20.0)
  end
  begin
     id 6 
     name rhipjoint
     direction -0.602353 -0.708375 0.367935   
     length 2.41867  
     axis 0 0 0  XYZ 
  end
  begin
     id 7 
     name rfemur
     direction -0.34202 -0.939693 0   
     length 6.92065   
     axis 0 0 -20   XYZ
    dof rx ry rz
    limits (-160.0 20.0)
           (-70.0 70.0)
           (-70.0 60.0)
  end
  begin
     id 8 
     name rtibia
     direction -0.34202 -0.939693 0   
     length 7.88883   
     axis 0 0 -20   XYZ
    dof rx
    limits (-10.0 170.0)
 end
 begin
     id 9 
     name rfoot
     direction -0.0768692 -0.211196 0.974416   
     length 2.43714  
     axis -90 -7.62852e-016 -20   XYZ
    dof rx rz
    limits (-45.0 90.0)
           (-20.0 70.0)
  end
  begin
     id 10 
     name rtoes
     direction -1.53575e-011 -4.21933e-011 1   
     length 1.22113   
     axis -90 -7.62852e-016 -20   XYZ
    dof rx
    limits (-90.0 20.0)
  end
  begin
     id 11 
     name lowerback
     direction 0.0197937 0.98943 -0.143655   
     length 2.16931   
     axis 0 0 0   XYZ
    dof rx ry rz
    limits (-20.0 45.0)
           (-30.0 30.0)
           (-30.0 30.0)
  end
  begin
     id 12 
     name upperback
     direction -0.00183968 0.999975 0.00684288   
     length 2.17221   
     axis 0 0 0   XYZ
    dof rx ry rz
    limits (-20.0 45.0)
           (-30.0 30.0)
           (-30.0 30.0)
  end
  begin
     id 13 
     name thorax
     direction -0.00950244 0.997208 0.0740685   
     length 2.22549   
     axis 0 0 0   XYZ
    dof rx ry rz
    limits (-20.0 45.0)
           (-30.0 30.0)
           (-30.0 30.0)
  end
  begin
     id 14 
     name lowerneck
     direction 0.0218238 0.996215 0.0841425   
     length 1.77269   
     axis 0 0 0   XYZ
    dof rx ry rz
    limits (-20.0 45.0)
           (-30.0 30.0)
           (-30.0 30.0)
  end
  begin
     id 15 
     name upperneck
     direction -0.00430652 0.994214 -0.107332   
     length 1.76534   
     axis 0 0 0   XYZ
    dof rx ry rz
    limits (-20.0 45.0)
           (-30.0 30.0)
           (-30.0 30.0)
  end
  begin
     id 16
     name head
     direction -0.00328946 0.998959 -0.0454998  
     length 1.82634  
     axis 0 0 0   XYZ
    dof rx ry rz
    limits (-20.0 45.0)
           (-30.0 30.0)
           (-30.0 30.0)
  end
  begin
     id 17 
     name lclavicle
     direction 0.970962 0.239191 0.00450212  
     length 3.84872  
     axis 0 0 0   XYZ
    dof ry rz
    limits (-20.0 10.0)
           (0.0 20.0)
  end
  begin
     id 18 
     name lhumerus
     direction 1 -4.48966e-011 5.74696e-028   
     length 5.22771   
     axis 180 -30 -90   XYZ
    dof rx ry rz
    limits (-60.0 90.0)
           (-90.0 90.0)
           (-90.0 90.0)
  end
  begin
     id 19
     name lradius
     direction 1 -4.4896e-011 4.25109e-027   
     length 3.45251   
     axis 180 -30 -90   XYZ
    dof rx
    limits (-10.0 170.0)
  end
  begin
     id 20
     name lwrist
     direction 1 -4.48971e-011 1.15382e-027   
     length 1.72626   
     axis -5.52449e-016 90 90   XYZ
    dof ry
    limits (-180.0 0.0)
 end
  begin
     id 21 
     name lhand
     direction 1 -4.49034e-011 2.30765e-027   
     length 0.552119   
     axis -1.47248e-015 90 90   XYZ
    dof rx rz
    limits (-90.0 90.0)
           (-45.0 45.0)
  end
  begin
     id 22 
     name lfingers
     direction 1 -4.48951e-011 4.61529e-027   
     length 0.445133   
     axis -2.94495e-015 90 90   XYZ
    dof rx
    limits (0.0 90.0)
  end
  begin
     id 23
     name lthumb
     direction 0.707107 -6.34991e-011 0.707107   
     length 0.639124   
     axis -90 45 2.85299e-015   XYZ
    dof rx rz
    limits (-45.0 45.0)
           (-45.0 45.0)
  end
  begin
     id 24 
     name rclavicle
     direction -0.97424 0.222511 -0.0366699   
     length 3.73439  
     axis 0 0 0   XYZ 
    dof ry rz
    limits (-10.0 20.0)
           (-20.0 0.0)
  end
  begin
     id 25 
     name rhumerus
     direction -1 -4.48956e-011 -4.97258e-028  
     length 5.2398   
     axis 180 30 90   XYZ
    dof rx ry rz
    limits (-90.0 60.0)
           (-90.0 90.0)
           (-90.0 90.0)
  end
  begin
     id 26 
     name rradius
     direction -1 -4.4897e-011 -1.72611e-027   
     length 3.48042   
     axis 180 30 90   XYZ
    dof rx
    limits (-10.0 170.0)
  end
  begin
     id 27 
     name rwrist
     direction -1 -4.48976e-011 1.15382e-027   
     length 1.74021   
     axis -5.52449e-016 -90 -90   XYZ
    dof ry
    limits (-180.0 0.0)
  end
  begin
     id 28
     name rhand
     direction -1 -4.48963e-011 2.30765e-027   
     length 0.618713   
     axis -1.47248e-015 -90 -90   XYZ
    dof rx rz
    limits (-90.0 90.0)
           (-45.0 45.0)
  end
  begin
     id 29
     name rfingers
     direction -1 -4.4888e-011 4.61529e-027   
     length 0.498823   
     axis -2.94495e-015 -90 -90   XYZ
    dof rx
    limits (0.0 90.0)
  end
  begin
     id 30
     name rthumb
     direction -0.707107 -6.34968e-011 0.707107   
     length 0.716213   
     axis -90 -45 -2.85299e-015   XYZ
    dof rx rz
    limits (-45.0 45.0)
           (-45.0 45.0)
  end
:hierarchy
  begin
    root lhipjoint rhipjoint lowerback
    lhipjoint lfemur
    lfemur ltibia
    ltibia lfoot
    lfoot ltoes
    rhipjoint rfemur
    rfemur rtibia
    rtibia rfoot
    rfoot rtoes
    lowerback upperback
    upperback thorax
    thorax lowerneck lclavicle rclavicle
    lowerneck upperneck
    upperneck head
    lclavicle lhumerus
    lhumerus lradius
    lradius lwrist
    lwrist lhand lthumb
    lhand lfingers
    rclavicle rhumerus
    rhumerus rradius
    rradius rwrist
    rwrist rhand rthumb
    rhand rfingers
  end

#!OML:ASF G:\JayActor3\Patient Classification 1\Patient 1\Session 5\male.ASF
:FULLY-SPECIFIED
:DEGREES
1
root 50.0176 16.2031 -5.18642 48.8781 -85.8223 -50.6206
lowerback 2.22256 -0.8455 3.91313
upperback 2.83001 -1.13386 0.224724
thorax 1.59241 -0.51547 -1.95221
lowerneck -7.64853 -0.622006 1.52181
upperneck 9.53796 -1.3354 2.41321
head 4.54838 -0.4978 0.458928
rclavicle -1.96051e-014 1.09332e-014
rhumerus -31.565 -4.98609 -87.3026
rradius 27.1916
rwrist 2.32772
rhand -19.3364 -9.90514
rfingers 7.12502
rthumb 6.9804 -39.77
lclavicle -1.96051e-014 1.09332e-014
lhumerus -32.0456 0.932793 86.3947
lradius 26.219
lwrist 18.5545
lhand -19.7881 15.4618
lfingers 7.12502
lthumb 6.54441 45.3407
rfemur -10.7801 5.01139 24.0406
rtibia 36.7467
rfoot -24.9793 -13.9898
rtoes 6.46211
lfemur -3.4424 6.34801 -15.4784
ltibia 24.0853
lfoot -17.4751 1.92602
ltoes -6.10482
2
root 50.0189 16.2008 -5.15781 50.5767 -85.9369 -52.3585
lowerback 2.27297 -0.835735 3.86263
upperback 2.84029 -1.11993 0.235669
thorax 1.57657 -0.509959 -1.91213
lowerneck -7.53956 -0.616685 1.50991
upperneck 9.39228 -1.30913 2.33298
head 4.47198 -0.491478 0.435391
rclavicle 5.32991e-015 5.36719e-015
rhumerus -31.5957 -5.16792 -87.2469
rradius 27.2391
rwrist 2.24282
rhand -19.2795 -9.78874
rfingers 7.12502
rthumb 7.03535 -39.6518
lclavicle 5.32991e-015 5.36719e-015
lhumerus -32.0185 0.935029 86.4579
lradius 26.3377
lwrist 18.5909
lhand -19.8612 15.6157
lfingers 7.12502
lthumb 6.4738 45.4967
rfemur -10.8466 5.05866 23.9122
rtibia 36.9076
rfoot -24.909 -13.879
rtoes 6.3121
lfemur -3.39468 6.47342 -15.5902
ltibia 24.1286
lfoot -17.534 1.96607
ltoes -6.09882
3
root 50.0217 16.1991 -5.13205 51.8742 -86.0248 -53.6628
lowerback 2.31223 -0.79494 3.82674
upperback 2.86695 -1.06494 0.203024
thorax 1.58535 -0.482501 -1.92584
lowerneck -7.56448 -0.639581 1.48934
upperneck 9.28776 -1.33879 2.37991
head 4.43987 -0.505172 0.452795
rclavicle 8.26199e-015 -1.98785e-016
rhumerus -31.5711 -5.65309 -87.1651
rradius 27.2705
rwrist 2.28449
rhand -19.2331 -9.70224
rfingers 7.12502
rthumb 7.08018 -39.5638
lclavicle 8.26199e-015 -1.98785e-016
lhumerus -31.9822 0.66763 86.5182
lradius 26.5754
lwrist 18.7736
lhand -19.9455 15.5776
lfingers 7.12502
lthumb 6.39246 45.4611
rfemur -10.9675 5.1376 23.8017
rtibia 37.1029
rfoot -24.8641 -13.926
rtoes 5.83143
lfemur -3.38486 6.61573 -15.6794
ltibia 24.1698
lfoot -17.5809 1.82846
ltoes -5.74375
4
root 50.0253 16.1962 -5.10838 52.8455 -86.1068 -54.6451
lowerback 2.37703 -0.776296 3.74104
upperback 2.86753 -1.03809 0.189295
thorax 1.55218 -0.471176 -1.8913
lowerneck -7.49816 -0.652796 1.4724
upperneck 9.17464 -1.34745 2.37058
head 4.38534 -0.512109 0.452006
rclavicle -1.35298e-014 -6.16232e-015
rhumerus -31.577 -6.10415 -87.0624
rradius 27.3444
rwrist 2.15625
rhand -19.0765 -9.83418
rfingers 7.12502
rthumb 7.23126 -39.6906
lclavicle -1.35298e-014 -6.16232e-015
lhumerus -31.8276 0.730882 86.4985
lradius 26.5444
lwrist 18.6912
lhand -19.8285 15.2972
lfingers 7.12502
lthumb 6.5054 45.1773
rfemur -11.085 5.24302 23.6957
rtibia 37.3033
rfoot -24.8368 -13.9272
rtoes 5.67821
lfemur -3.40604 6.87761 -15.7707
ltibia 24.2058
lfoot -17.5809 1.7815
ltoes -6.191
5
root 50.0285 16.1936 -5.08382 54.0993 -86.2021 -55.9074
lowerback 2.42411 -0.749355 3.66567
upperback 2.87781 -1.00126 0.169549
thorax 1.53924 -0.454155 -1.86924
lowerneck -7.46074 -0.666319 1.4594
upperneck 9.07217 -1.35854 2.3659
head 4.34071 -0.519494 0.451919
rclavicle -3.76448e-015 1.0138e-014
rhumerus -31.5744 -6.54938 -86.9655
rradius 27.362
rwrist 2.1599
rhand -19.0825 -9.72011
rfingers 7.12502
rthumb 7.22554 -39.5768
lclavicle -3.76448e-015 1.0138e-014
lhumerus -31.7283 0.67607 86.5142
lradius 26.6275
lwrist 18.721
lhand -19.7936 15.1473
lfingers 7.12502
lthumb 6.53902 45.0263
rfemur -11.2164 5.3431 23.5769
rtibia 37.5154
rfoot -24.802 -13.9394
rtoes 5.39543
lfemur -3.41407 7.08236 -15.8765
ltibia 24.2382
lfoot -17.5964 1.7438
ltoes -6.38859
6
root 50.032 16.191 -5.05991 55.3732 -86.3014 -57.1848
lowerback 2.4673 -0.720953 3.57958
upperback 2.88734 -0.962757 0.147324
thorax 1.52783 -0.436422 -1.84383
lowerneck -7.42914 -0.680408 1.44637
upperneck 8.98314 -1.37161 2.36567
head 4.30226 -0.527471 0.453246
rclavicle -1.67849e-014 1.21259e-014
rhumerus -31.5657 -7.01673 -86.8629
rradius 27.3653
rwrist 2.18675
rhand -19.1303 -9.57973
rfingers 7.12502
rthumb 7.17941 -39.4379
lclavicle -1.67849e-014 1.21259e-014
lhumerus -31.6267 0.617402 86.5269
lradius 26.7156
lwrist 18.7583
lhand -19.7462 14.9839
lfingers 7.12502
lthumb 6.58485 44.8616
rfemur -11.364 5.44862 23.4537
rtibia 37.7416
rfoot -24.7646 -13.9617
rtoes 5.08423
lfemur -3.42337 7.28736 -15.9895
ltibia 24.2577
lfoot -17.6043 1.71989
ltoes -6.62628
7
root 50.0357 16.1887 -5.03642 56.6961 -86.4033 -58.5062
lowerback 2.50249 -0.695385 3.48339
upperback 2.89774 -0.92861 0.126815
thorax 1.52162 -0.420961 -1.81108
lowerneck -7.40452 -0.687201 1.4338
upperneck 8.90486 -1.37494 2.36019
head 4.26906 -0.530697 0.453334
rclavicle 5.19325e-015 -2.78299e-015
rhumerus -31.5464 -7.47261 -86.7603
rradius 27.3626
rwrist 2.2116
rhand -19.1963 -9.43784
rfingers 7.12502
rthumb 7.11564 -39.2982
lclavicle 5.19325e-015 -2.78299e-015
lhumerus -31.5288 0.551585 86.5481
lradius 26.8247
lwrist 18.8019
lhand -19.7136 14.8948
lfingers 7.12502
lthumb 6.61627 44.7714
rfemur -11.523 5.5511 23.3247
rtibia 37.9722
rfoot -24.7231 -13.9696
rtoes 4.80577
lfemur -3.43732 7.48346 -16.1104
ltibia 24.2714
lfoot -17.6094 1.71878
ltoes -6.89684
8
root 50.0397 16.1869 -5.01329 58.0849 -86.501 -59.8884
lowerback 2.52966 -0.672967 3.3856
upperback 2.90919 -0.899129 0.108237
thorax 1.52069 -0.407786 -1.77551
lowerneck -7.38766 -0.691226 1.42053
upperneck 8.84266 -1.37505 2.35257
head 4.24322 -0.532236 0.45304
rclavicle -2.28602e-015 -2.38542e-015
rhumerus -31.5167 -7.90962 -86.6633
rradius 27.3507
rwrist 2.23695
rhand -19.296 -9.25918
rfingers 7.12502
rthumb 7.01945 -39.1228
lclavicle -2.28602e-015 -2.38542e-015
lhumerus -31.4425 0.462435 86.5802
lradius 26.963
lwrist 18.8633
lhand -19.7096 14.879
lfingers 7.12502
lthumb 6.62016 44.7555
rfemur -11.6938 5.6437 23.1957
rtibia 38.2096
rfoot -24.6752 -13.9568
rtoes 4.54722
lfemur -3.45294 7.66034 -16.2316
ltibia 24.2779
lfoot -17.6154 1.72362
ltoes -7.11093
9
root 50.044 16.1855 -4.99022 59.6087 -86.591 -61.4033
lowerback 2.55529 -0.653779 3.29226
upperback 2.92036 -0.874083 0.0942516
thorax 1.52005 -0.396814 -1.73769
lowerneck -7.36276 -0.694158 1.41949
upperneck 8.77651 -1.3726 2.3242
head 4.21403 -0.533166 0.443767
rclavicle -4.09993e-015 9.93923e-016
rhumerus -31.4752 -8.30934 -86.5749
rradius 27.3524
rwrist 2.2204
rhand -19.3506 -9.18678
rfingers 7.12502
rthumb 6.96675 -39.0521
lclavicle -4.09993e-015 9.93923e-016
lhumerus -31.3702 0.357704 86.623
lradius 27.1249
lwrist 18.932
lhand -19.7329 14.9373
lfingers 7.12502
lthumb 6.59769 44.8145
rfemur -11.8729 5.71563 23.0691
rtibia 38.4522
rfoot -24.6102 -13.9152
rtoes 4.29777
lfemur -3.46781 7.82125 -16.3477
ltibia 24.2801
lfoot -17.6237 1.73182
ltoes -7.26809
10
root 50.0487 16.1848 -4.96714 61.207 -86.6629 -62.9917
lowerback 2.57761 -0.639028 3.21596
upperback 2.93479 -0.855098 0.0832977
thorax 1.5241 -0.388532 -1.70629
lowerneck -7.34521 -0.697408 1.42772
upperneck 8.72141 -1.37099 2.28373
head 4.19013 -0.534575 0.428754
rclavicle 5.49143e-015 5.76476e-015
rhumerus -31.4206 -8.67459 -86.4993
rradius 27.3523
rwrist 2.20675
rhand -19.3994 -9.12443
rfingers 7.12502
rthumb 6.91963 -38.9913
lclavicle 5.49143e-015 5.76476e-015
lhumerus -31.2989 0.233366 86.6723
lradius 27.2937
lwrist 19.0094
lhand -19.7761 15.0152
lfingers 7.12502
lthumb 6.55597 44.8937
rfemur -12.0557 5.75542 22.9517
rtibia 38.6979
rfoot -24.5272 -13.8315
rtoes 4.08268
lfemur -3.48367 7.96554 -16.4493
ltibia 24.2811
lfoot -17.6343 1.73201
ltoes -7.35429
11
root 50.0535 16.1842 -4.94386 62.8272 -86.7133 -64.6051
lowerback 2.60248 -0.630867 3.16123
upperback 2.94824 -0.844607 0.0764709
thorax 1.52507 -0.38423 -1.68258
lowerneck -7.32448 -0.697133 1.44211
upperneck 8.67503 -1.3648 2.23486
head 4.16858 -0.533855 0.410146
rclavicle 5.69021e-015 -3.18055e-015
rhumerus -31.361 -8.99049 -86.4366
rradius 27.3513
rwrist 2.19054
rhand -19.4353 -9.08267
rfingers 7.12502
rthumb 6.88492 -38.9507
lclavicle 5.69021e-015 -3.18055e-015
lhumerus -31.2351 0.109537 86.7212
lradius 27.4563
lwrist 19.0863
lhand -19.8123 15.0698
lfingers 7.12502
lthumb 6.52102 44.9494
rfemur -12.2385 5.75956 22.8453
rtibia 38.9476
rfoot -24.419 -13.7206
rtoes 3.84707
lfemur -3.4978 8.10186 -16.533
ltibia 24.2828
lfoot -17.6457 1.72155
ltoes -7.40652
12
root 50.0587 16.1839 -4.92021 64.4915 -86.7434 -66.2704
lowerback 2.63425 -0.626491 3.13065
upperback 2.96751 -0.838971 0.0728631
thorax 1.52771 -0.381956 -1.669
lowerneck -7.3196 -0.69639 1.46114
upperneck 8.64081 -1.35892 2.18232
head 4.15455 -0.533039 0.389461
rclavicle 4.5472e-015 1.98785e-016
rhumerus -31.2866 -9.25889 -86.3898
rradius 27.3663
rwrist 2.1539
rhand -19.4286 -9.09181
rfingers 7.12502
rthumb 6.89139 -38.9596
lclavicle 4.5472e-015 1.98785e-016
lhumerus -31.166 -0.020168 86.7722
lradius 27.6128
lwrist 19.1716
lhand -19.8454 15.1033
lfingers 7.12502
lthumb 6.48903 44.9839
rfemur -12.418 5.72453 22.7481
rtibia 39.2028
rfoot -24.2791 -13.5772
rtoes 3.58483
lfemur -3.50319 8.23122 -16.5981
ltibia 24.2845
lfoot -17.6594 1.69344
ltoes -7.39099
13
root 50.0642 16.1837 -4.8962 66.1245 -86.7566 -67.9104
lowerback 2.67484 -0.627806 3.12149
upperback 2.98674 -0.84043 0.0719582
thorax 1.52482 -0.382989 -1.66443
lowerneck -7.31753 -0.695294 1.4827
upperneck 8.61957 -1.35287 2.12436
head 4.14569 -0.532164 0.366544
rclavicle 3.3048e-015 -1.21259e-014
rhumerus -31.21 -9.46352 -86.3607
rradius 27.4128
rwrist 2.07664
rhand -19.364 -9.17886
rfingers 7.12502
rthumb 6.95375 -39.0446
lclavicle 3.3048e-015 -1.21259e-014
lhumerus -31.0916 -0.137348 86.8212
lradius 27.7494
lwrist 19.2513
lhand -19.861 15.1245
lfingers 7.12502
lthumb 6.47399 45.0056
rfemur -12.5985 5.65099 22.6545
rtibia 39.467
rfoot -24.1072 -13.3965
rtoes 3.30316
lfemur -3.50344 8.35672 -16.6505
ltibia 24.2853
lfoot -17.6724 1.65963
ltoes -7.3714
14
root 50.0699 16.1835 -4.87181 67.8258 -86.7611 -69.6268
lowerback 2.72608 -0.629774 3.12888
upperback 3.00578 -0.84221 0.0713963
thorax 1.51558 -0.384015 -1.66865
lowerneck -7.31475 -0.693845 1.5046
upperneck 8.60897 -1.34715 2.06956
head 4.14055 -0.531223 0.344632
rclavicle 4.4975e-015 5.56597e-015
rhumerus -31.1375 -9.61255 -86.348
rradius 27.4913
rwrist 1.96597
rhand -19.2537 -9.32171
rfingers 7.12502
rthumb 7.06024 -39.184
lclavicle 4.4975e-015 5.56597e-015
lhumerus -31.0098 -0.237615 86.8648
lradius 27.8591
lwrist 19.3191
lhand -19.8639 15.1276
lfingers 7.12502
lthumb 6.47121 45.0087
rfemur -12.7804 5.54718 22.5591
rtibia 39.7437
rfoot -23.897 -13.1835
rtoes 2.96812
lfemur -3.49132 8.47884 -16.6957
ltibia 24.2827
lfoot -17.6881 1.62367
ltoes -7.32987
15
root 50.0759 16.1835 -4.84738 69.5922 -86.7563 -71.4115
lowerback 2.78206 -0.63202 3.14679
upperback 3.02937 -0.84433 0.074604
thorax 1.50832 -0.385051 -1.67486
lowerneck -7.33222 -0.689213 1.52747
upperneck 8.60959 -1.33781 2.01245
head 4.14348 -0.528278 0.321944
rclavicle -6.03808e-015 3.97569e-016
rhumerus -31.0597 -9.70725 -86.3468
rradius 27.5981
rwrist 1.8316
rhand -19.1072 -9.50196
rfingers 7.12502
rthumb 7.20168 -39.3594
lclavicle -6.03808e-015 3.97569e-016
lhumerus -30.9142 -0.3303 86.9115
lradius 27.9558
lwrist 19.374
lhand -19.8667 15.1653
lfingers 7.12502
lthumb 6.4685 45.0465
rfemur -12.9726 5.42392 22.4635
rtibia 40.0369
rfoot -23.6571 -12.938
rtoes 2.61259
lfemur -3.4738 8.59053 -16.7341
ltibia 24.2752
lfoot -17.7016 1.59539
ltoes -7.28272
